<?xml version="1.0" encoding="utf-8"?>
<!-- Generator: Adobe Illustrator 22.1.0, SVG Export Plug-In . SVG Version: 6.00 Build 0)  -->
<svg version="1.1" id="Layer_1" xmlns="http://www.w3.org/2000/svg" xmlns:xlink="http://www.w3.org/1999/xlink" x="0px" y="0px"
	 viewBox="0 0 14 14" style="enable-background:new 0 0 14 14;" xml:space="preserve">
<path d="M7,0C3.1,0,0,3.1,0,7s3.1,7,7,7c0.5,0,0.9-0.1,1.4-0.1c-0.2-0.1-0.2-0.7,0-1.1c0.2-0.4,0.8-1.4,0.2-1.8s-0.4-0.5-0.8-0.9
	C7.4,9.6,7.5,9.6,7.5,9.5C7.4,9.1,7.9,8.6,7.9,8.5c0-0.1,0-0.3,0-0.3C7.9,8.1,7.6,8,7.5,8C7.5,8,7.4,8.1,7.3,8.1
	c-0.1,0-0.5-0.2-0.6-0.3S6.6,7.6,6.5,7.4c-0.1-0.1-0.1,0-0.3-0.1S5.4,7,4.9,6.9C4.4,6.7,4.4,6.4,4.4,6.2c0-0.2-0.3-0.5-0.4-0.7
	C3.8,5.3,3.8,5.1,3.7,5.1S4,5.9,3.9,5.9c0,0-0.2-0.2-0.3-0.4C3.5,5.4,3.8,5.5,3.3,4.6s0.1-1.3,0.2-1.8S3.9,3,3.7,2.7s0-0.9-0.1-1.1
	C3.4,1.4,2.7,1.9,2.7,1.9c0-0.2,0.7-0.6,1.2-0.9S4.6,0.9,5,1c0.4,0.1,0.4,0.1,0.3,0C5.1,0.8,5.3,0.8,5.6,0.8c0.3,0,0.4,0.4,0.8,0.4
	c0.5,0,0.1,0.1,0.1,0.2S6.5,1.5,6.2,1.7c-0.3,0.2,0,0.2,0.6,0.6S7.1,2,7.1,1.7s0.4-0.1,0.4-0.1c0.3,0.2,0.3,0,0.5,0.1
	s0.9,0.6,0.9,0.6C8,2.8,8.5,2.9,8.7,3S8.4,3.3,8.4,3.3c-0.2-0.2-0.2,0-0.3,0.1c-0.1,0.1,0,0.2,0,0.2C7.5,3.7,7.6,4.3,7.7,4.4
	c0,0.1-0.4,0.4-0.5,0.6C7.1,5.2,7.4,5.6,7.3,5.7C7.1,5.7,6.9,5,5.9,5.3C5.6,5.3,5,5.7,5.4,6.3C5.7,7,6.3,6.1,6.5,6.2s-0.1,0.5,0,0.6
	S7,6.8,7,7.4C7,8,7.8,7.9,7.9,8c0.2,0,0.7-0.4,0.8-0.4c0.1,0,0.4-0.3,1,0.1c0.7,0.4,1,0.3,1.2,0.5c0.2,0.2,0.1,0.5,0.3,0.6
	s1.1,0,1.3,0.3c0.2,0.3-0.9,2.1-1.2,2.3s-0.5,0.6-0.8,0.9s-0.8,0.6-1.3,0.9c-0.4,0.2-0.5,0.7-0.7,0.8C11.6,13.2,14,10.4,14,7
	C14,3.2,10.8,0,7,0L7,0z M8.6,6.6c-0.1,0-0.3,0.2-0.8-0.1C7.4,6.2,7.1,6.2,7,6.2c0,0-0.1-0.1,0.2-0.1c0.4-0.1,1,0.4,1.1,0.4
	s0.2-0.1,0.4-0.1S8.7,6.5,8.6,6.6z M6.3,0.7c-0.1,0,0-0.1,0.1-0.1c0,0,0-0.1,0.1-0.1c0.1-0.1,0.6-0.2,0.5,0C6.9,0.7,6.4,0.8,6.3,0.7
	z M7.6,1.6c-0.2,0-0.6,0-0.5-0.1C7.4,1.2,7,1.1,6.7,1.1c-0.2,0-0.3-0.2-0.2-0.2c0.1,0,0.6,0,0.7,0.1C7.3,1,7.7,1.2,7.7,1.3
	C7.8,1.5,7.7,1.6,7.6,1.6z M9,1.5C8.9,1.6,8.2,1.1,8.1,1c-0.6-0.5-0.9-0.3-1-0.4S7,0.4,7.2,0.3s0.7,0.1,1,0.1c0.3,0,0.7,0.3,0.7,0.6
	C8.9,1.2,9.2,1.4,9,1.5C9.1,1.5,9,1.5,9,1.5z"/>
</svg>
